<svg width="118" height="44" viewBox="0 0 118 44" fill="none" xmlns="http://www.w3.org/2000/svg">
<path d="M51.8388 16.4692C50.0706 16.1762 48.6708 16.0297 47.6245 16.0297C46.5784 16.0297 45.7826 16.2787 45.2522 16.7623C44.7217 17.2457 44.4418 17.9344 44.4418 18.8135C44.4418 19.3703 44.6038 19.7805 44.9133 20.0443C45.2375 20.308 46.0037 20.689 47.212 21.1725C48.435 21.656 49.2749 22.1835 49.7317 22.7256C50.2032 23.2824 50.4242 24.0883 50.4242 25.1578C50.4242 26.9893 49.8643 28.4106 48.7444 29.4216C47.6245 30.4325 46.1068 30.9308 44.206 30.9308C43.4692 30.9308 42.6882 30.8574 41.8484 30.7256C41.0084 30.5937 40.3748 30.4472 39.918 30.3007L39.2107 30.0809L39.6528 28.1029C41.5242 28.4106 43.0566 28.5718 44.2354 28.5718C46.5047 28.5718 47.6393 27.5461 47.6393 25.4802C47.6393 24.9088 47.4772 24.4985 47.1678 24.2201C46.8583 23.9564 46.1216 23.5901 44.9575 23.1065C43.7934 22.6377 42.9535 22.1102 42.4378 21.5388C41.922 20.9673 41.6715 20.1468 41.6715 19.0919C41.6715 17.4802 42.1872 16.1908 43.2335 15.1945C44.2797 14.1982 45.6795 13.7146 47.4478 13.7146C48.1845 13.7146 48.9507 13.7732 49.7611 13.9051C50.5716 14.037 51.1905 14.1688 51.6326 14.3007L52.3251 14.5205L51.8388 16.4692Z" fill="#2C3E50"/>
<path d="M51.8388 16.4692C50.0706 16.1762 48.6708 16.0297 47.6245 16.0297C46.5784 16.0297 45.7826 16.2787 45.2522 16.7623C44.7217 17.2457 44.4418 17.9344 44.4418 18.8135C44.4418 19.3703 44.6038 19.7805 44.9133 20.0443C45.2375 20.308 46.0037 20.689 47.212 21.1725C48.435 21.656 49.2749 22.1835 49.7317 22.7256C50.2032 23.2824 50.4242 24.0883 50.4242 25.1578C50.4242 26.9893 49.8643 28.4106 48.7444 29.4216C47.6245 30.4325 46.1068 30.9308 44.206 30.9308C43.4692 30.9308 42.6882 30.8574 41.8484 30.7256C41.0084 30.5937 40.3748 30.4472 39.918 30.3007L39.2107 30.0809L39.6528 28.1029C41.5242 28.4106 43.0566 28.5718 44.2354 28.5718C46.5047 28.5718 47.6393 27.5461 47.6393 25.4802C47.6393 24.9088 47.4772 24.4985 47.1678 24.2201C46.8583 23.9564 46.1216 23.5901 44.9575 23.1065C43.7934 22.6377 42.9535 22.1102 42.4378 21.5388C41.922 20.9673 41.6715 20.1468 41.6715 19.0919C41.6715 17.4802 42.1872 16.1908 43.2335 15.1945C44.2797 14.1982 45.6795 13.7146 47.4478 13.7146C48.1845 13.7146 48.9507 13.7732 49.7611 13.9051C50.5716 14.037 51.1905 14.1688 51.6326 14.3007L52.3251 14.5205L51.8388 16.4692Z" fill="#2C3E50"/>
<path d="M55.4197 27.7949C55.4197 28.3956 55.7439 28.7032 56.3775 28.7032L58.1458 28.5567L57.9247 30.4761C57.07 30.7839 56.2154 30.945 55.3607 30.945C54.5061 30.945 53.843 30.7106 53.3715 30.2564C52.9 29.8021 52.679 29.2161 52.679 28.5128C52.679 27.8095 52.7968 26.945 53.0473 25.9487L54.2703 20.7619H52.8557L53.4451 18.4908H54.845L55.6113 15.1501H58.2784L57.4973 18.4908H60.4444L59.8845 20.7619H56.9669L55.6997 26.1685C55.5081 26.8425 55.4197 27.3846 55.4197 27.7949Z" fill="#2C3E50"/>
<path d="M55.4197 27.7949C55.4197 28.3956 55.7439 28.7032 56.3775 28.7032L58.1458 28.5567L57.9247 30.4761C57.07 30.7839 56.2154 30.945 55.3607 30.945C54.5061 30.945 53.843 30.7106 53.3715 30.2564C52.9 29.8021 52.679 29.2161 52.679 28.5128C52.679 27.8095 52.7968 26.945 53.0473 25.9487L54.2703 20.7619H52.8557L53.4451 18.4908H54.845L55.6113 15.1501H58.2784L57.4973 18.4908H60.4444L59.8845 20.7619H56.9669L55.6997 26.1685C55.5081 26.8425 55.4197 27.3846 55.4197 27.7949Z" fill="#2C3E50"/>
<path d="M63.406 30.945C62.2714 30.945 61.4462 30.5787 60.901 29.8608C60.3559 29.1428 60.0906 28.2344 60.0906 27.1355C60.0906 26.0366 60.2232 24.9963 60.4737 24.0293C60.7242 23.0476 61.0926 22.1246 61.5641 21.2454C62.0357 20.3662 62.684 19.6336 63.5092 19.0769C64.3344 18.5201 65.2627 18.2417 66.2941 18.2417C67.2077 18.2417 68.7402 18.4176 70.9062 18.7839L71.9378 18.9597L70.0958 26.8571L69.4327 30.652L66.8099 30.7546C66.9867 29.5824 67.1193 28.8498 67.1782 28.5421C66.412 29.5531 65.5426 30.271 64.5554 30.7106C64.1723 30.8571 63.7891 30.945 63.406 30.945ZM68.9023 20.8351C67.7972 20.586 66.913 20.4688 66.25 20.4688C65.6015 20.4688 64.9827 20.8351 64.4081 21.5677C63.3323 22.9157 62.7872 24.6887 62.7872 26.8865C62.7872 27.4871 62.8903 27.9414 63.1113 28.2344C63.3323 28.5421 63.6713 28.6886 64.1428 28.6886C64.6143 28.6886 65.1153 28.4688 65.6752 28.0439C66.2352 27.6191 66.692 27.1795 67.0751 26.7399L67.6351 26.0806L68.9023 20.8351Z" fill="#2C3E50"/>
<path d="M63.406 30.945C62.2714 30.945 61.4462 30.5787 60.901 29.8608C60.3559 29.1428 60.0906 28.2344 60.0906 27.1355C60.0906 26.0366 60.2232 24.9963 60.4737 24.0293C60.7242 23.0476 61.0926 22.1246 61.5641 21.2454C62.0357 20.3662 62.684 19.6336 63.5092 19.0769C64.3344 18.5201 65.2627 18.2417 66.2941 18.2417C67.2077 18.2417 68.7402 18.4176 70.9062 18.7839L71.9378 18.9597L70.0958 26.8571L69.4327 30.652L66.8099 30.7546C66.9867 29.5824 67.1193 28.8498 67.1782 28.5421C66.412 29.5531 65.5426 30.271 64.5554 30.7106C64.1723 30.8571 63.7891 30.945 63.406 30.945ZM68.9023 20.8351C67.7972 20.586 66.913 20.4688 66.25 20.4688C65.6015 20.4688 64.9827 20.8351 64.4081 21.5677C63.3323 22.9157 62.7872 24.6887 62.7872 26.8865C62.7872 27.4871 62.8903 27.9414 63.1113 28.2344C63.3323 28.5421 63.6713 28.6886 64.1428 28.6886C64.6143 28.6886 65.1153 28.4688 65.6752 28.0439C66.2352 27.6191 66.692 27.1795 67.0751 26.7399L67.6351 26.0806L68.9023 20.8351Z" fill="#2C3E50"/>
<path d="M79.9679 13.1572C80.6309 13.1572 81.2651 13.2745 81.8544 13.4943L82.1782 13.6115L81.6922 15.5895C81.0881 15.4723 80.5431 15.4137 80.0564 15.4137C79.5704 15.4137 79.2016 15.6041 78.9664 15.9704C78.7304 16.3514 78.5091 16.9522 78.2886 17.7726L78.1116 18.4759H80.9997L80.4399 20.747H77.6256L75.2973 30.6664L73.7795 35.9265H71.407L74.958 20.7763H73.7351L74.2803 18.4906H75.4736L75.6506 17.758C76.0488 16.073 76.5496 14.8862 77.1831 14.1829C77.8018 13.4943 78.7304 13.1572 79.9679 13.1572Z" fill="#2C3E50"/>
<path d="M79.9679 13.1572C80.6309 13.1572 81.2651 13.2745 81.8544 13.4943L82.1782 13.6115L81.6922 15.5895C81.0881 15.4723 80.5431 15.4137 80.0564 15.4137C79.5704 15.4137 79.2016 15.6041 78.9664 15.9704C78.7304 16.3514 78.5091 16.9522 78.2886 17.7726L78.1116 18.4759H80.9997L80.4399 20.747H77.6256L75.2973 30.6664L73.7795 35.9265H71.407L74.958 20.7763H73.7351L74.2803 18.4906H75.4736L75.6506 17.758C76.0488 16.073 76.5496 14.8862 77.1831 14.1829C77.8018 13.4943 78.7304 13.1572 79.9679 13.1572Z" fill="#2C3E50"/>
<path d="M87.8072 13.1572C88.4702 13.1572 89.1038 13.2745 89.693 13.4943L90.0175 13.6115L89.5308 15.5895C88.9268 15.4723 88.3818 15.4137 87.8957 15.4137C87.409 15.4137 87.041 15.6041 86.805 15.9704C86.569 16.3514 86.3485 16.9522 86.1272 17.7726L85.9502 18.4759H88.8383L88.2785 20.747H85.4642L83.1359 30.6664L81.6181 35.9265H79.2456L82.7974 20.7763H81.5739L82.1189 18.4906H83.3129L83.4899 17.758C83.8874 16.073 84.3882 14.8862 85.0224 14.1829C85.6412 13.4943 86.569 13.1572 87.8072 13.1572Z" fill="#2C3E50"/>
<path d="M87.8072 13.1572C88.4702 13.1572 89.1038 13.2745 89.693 13.4943L90.0175 13.6115L89.5308 15.5895C88.9268 15.4723 88.3818 15.4137 87.8957 15.4137C87.409 15.4137 87.041 15.6041 86.805 15.9704C86.569 16.3514 86.3485 16.9522 86.1272 17.7726L85.9502 18.4759H88.8383L88.2785 20.747H85.4642L83.1359 30.6664L81.6181 35.9265H79.2456L82.7974 20.7763H81.5739L82.1189 18.4906H83.3129L83.4899 17.758C83.8874 16.073 84.3882 14.8862 85.0224 14.1829C85.6412 13.4943 86.569 13.1572 87.8072 13.1572Z" fill="#2C3E50"/>
<path d="M91.0198 26.9305C91.0198 27.4727 91.2116 27.8976 91.5803 28.2053C91.9483 28.513 92.4203 28.6742 92.9801 28.6742C94.1586 28.6742 95.3231 28.5716 96.4574 28.3811L97.0909 28.2639L96.8262 30.2566C95.3379 30.7108 93.8349 30.9452 92.3171 30.9452C89.6643 30.9452 88.353 29.6266 88.353 27.0038C88.353 24.7035 88.8685 22.7108 89.9003 21.0405C90.4158 20.1906 91.1231 19.5166 92.0073 19.0185C92.8916 18.5203 93.8939 18.2566 95.0281 18.2566C97.7097 18.2566 99.0512 19.3701 99.0512 21.5972C99.0512 23.0918 98.5202 24.1321 97.4449 24.7181C96.3689 25.3042 94.6306 25.5973 92.2138 25.5973H91.1821C91.0788 25.9342 91.0198 26.3885 91.0198 26.9305ZM92.6408 23.5752C94.0111 23.5752 94.9839 23.4287 95.5584 23.1357C96.1329 22.8426 96.4132 22.3298 96.4132 21.5972C96.4132 20.7914 95.9124 20.3811 94.8954 20.3811C93.2006 20.3811 92.0663 21.4507 91.4918 23.5752H92.6408Z" fill="#2C3E50"/>
<path d="M91.0198 26.9305C91.0198 27.4727 91.2116 27.8976 91.5803 28.2053C91.9483 28.513 92.4203 28.6742 92.9801 28.6742C94.1586 28.6742 95.3231 28.5716 96.4574 28.3811L97.0909 28.2639L96.8262 30.2566C95.3379 30.7108 93.8349 30.9452 92.3171 30.9452C89.6643 30.9452 88.353 29.6266 88.353 27.0038C88.353 24.7035 88.8685 22.7108 89.9003 21.0405C90.4158 20.1906 91.1231 19.5166 92.0073 19.0185C92.8916 18.5203 93.8939 18.2566 95.0281 18.2566C97.7097 18.2566 99.0512 19.3701 99.0512 21.5972C99.0512 23.0918 98.5202 24.1321 97.4449 24.7181C96.3689 25.3042 94.6306 25.5973 92.2138 25.5973H91.1821C91.0788 25.9342 91.0198 26.3885 91.0198 26.9305ZM92.6408 23.5752C94.0111 23.5752 94.9839 23.4287 95.5584 23.1357C96.1329 22.8426 96.4132 22.3298 96.4132 21.5972C96.4132 20.7914 95.9124 20.3811 94.8954 20.3811C93.2006 20.3811 92.0663 21.4507 91.4918 23.5752H92.6408Z" fill="#2C3E50"/>
<path d="M99.2561 30.6667L102.071 18.4908H104.694L104.281 20.2637C104.841 19.8241 105.504 19.3992 106.3 18.989C107.096 18.5787 107.788 18.315 108.377 18.2271L107.611 20.9523C106.874 21.1575 105.829 21.597 104.443 22.2418L103.809 22.5348L101.894 30.6667H99.2561Z" fill="#2C3E50"/>
<path d="M99.2561 30.6667L102.071 18.4908H104.694L104.281 20.2637C104.841 19.8241 105.504 19.3992 106.3 18.989C107.096 18.5787 107.788 18.315 108.377 18.2271L107.611 20.9523C106.874 21.1575 105.829 21.597 104.443 22.2418L103.809 22.5348L101.894 30.6667H99.2561Z" fill="#2C3E50"/>
<path d="M113.269 20.4837C112.636 20.4837 112.135 20.6449 111.766 20.9672C111.398 21.2896 111.221 21.6559 111.221 22.0661C111.221 22.4764 111.354 22.7548 111.62 22.916C111.884 23.0771 112.356 23.2676 113.064 23.458C113.771 23.6632 114.286 23.8243 114.611 23.9563C114.935 24.0881 115.259 24.2639 115.598 24.4691C116.187 24.85 116.482 25.4801 116.482 26.3884C116.482 27.8683 115.981 28.9965 114.994 29.7584C113.991 30.535 112.695 30.916 111.074 30.916C109.836 30.916 108.643 30.7401 107.523 30.3738L106.978 30.198L107.464 28.2199C109.011 28.513 110.249 28.6595 111.162 28.6595C112.916 28.6595 113.786 28.0734 113.786 26.8867C113.786 26.579 113.653 26.3445 113.387 26.198C113.123 26.0515 112.533 25.861 111.59 25.6119C110.647 25.3628 109.91 25.0405 109.38 24.6302C108.834 24.22 108.569 23.6046 108.569 22.8134C108.569 21.4068 109.055 20.2786 110.013 19.4581C110.971 18.6229 112.165 18.2126 113.564 18.2126C114.92 18.2126 116.157 18.3738 117.263 18.6961L117.808 18.8427L117.322 20.8207C115.671 20.6156 114.331 20.4837 113.269 20.4837Z" fill="#2C3E50"/>
<path d="M113.269 20.4837C112.636 20.4837 112.135 20.6449 111.766 20.9672C111.398 21.2896 111.221 21.6559 111.221 22.0661C111.221 22.4764 111.354 22.7548 111.62 22.916C111.884 23.0771 112.356 23.2676 113.064 23.458C113.771 23.6632 114.286 23.8243 114.611 23.9563C114.935 24.0881 115.259 24.2639 115.598 24.4691C116.187 24.85 116.482 25.4801 116.482 26.3884C116.482 27.8683 115.981 28.9965 114.994 29.7584C113.991 30.535 112.695 30.916 111.074 30.916C109.836 30.916 108.643 30.7401 107.523 30.3738L106.978 30.198L107.464 28.2199C109.011 28.513 110.249 28.6595 111.162 28.6595C112.916 28.6595 113.786 28.0734 113.786 26.8867C113.786 26.579 113.653 26.3445 113.387 26.198C113.123 26.0515 112.533 25.861 111.59 25.6119C110.647 25.3628 109.91 25.0405 109.38 24.6302C108.834 24.22 108.569 23.6046 108.569 22.8134C108.569 21.4068 109.055 20.2786 110.013 19.4581C110.971 18.6229 112.165 18.2126 113.564 18.2126C114.92 18.2126 116.157 18.3738 117.263 18.6961L117.808 18.8427L117.322 20.8207C115.671 20.6156 114.331 20.4837 113.269 20.4837Z" fill="#2C3E50"/>
<path d="M26.5528 13.2015H17.7116C17.7116 10.7692 15.7224 8.7912 13.2764 8.7912V0C20.5997 0 26.5528 5.91942 26.5528 13.2015Z" fill="#26C64B"/>
<path d="M26.5528 13.2015H17.7116C17.7116 10.7692 15.7224 8.7912 13.2764 8.7912V0C20.5997 0 26.5528 5.91942 26.5528 13.2015Z" fill="#26C64B"/>
<path d="M13.2765 43.9998C5.95305 43.9998 0 38.0804 0 30.7983H8.84115C8.84115 33.2306 10.8304 35.2086 13.2765 35.2086V43.9998Z" fill="#FF931E"/>
<path d="M13.2765 43.9998C5.95305 43.9998 0 38.0804 0 30.7983H8.84115C8.84115 33.2306 10.8304 35.2086 13.2765 35.2086V43.9998Z" fill="#FF931E"/>
<path d="M26.553 30.7987H17.7118C17.7118 29.0697 15.7373 27.502 11.8325 26.154C8.75272 25.0844 6.3509 23.8097 4.47952 22.2566C1.5472 19.8243 0 16.6888 0 13.2017H8.84115C8.84115 14.9306 10.8157 16.4984 14.7205 17.8463C17.8002 18.9159 20.202 20.1906 22.0735 21.7437C25.0058 24.176 26.553 27.3115 26.553 30.7987Z" fill="#2C3E50"/>
<path d="M26.553 30.7987H17.7118C17.7118 29.0697 15.7373 27.502 11.8325 26.154C8.75272 25.0844 6.3509 23.8097 4.47952 22.2566C1.5472 19.8243 0 16.6888 0 13.2017H8.84115C8.84115 14.9306 10.8157 16.4984 14.7205 17.8463C17.8002 18.9159 20.202 20.1906 22.0735 21.7437C25.0058 24.176 26.553 27.3115 26.553 30.7987Z" fill="#2C3E50"/>
</svg>
